<svg xmlns="http://www.w3.org/2000/svg" xmlns:xlink="http://www.w3.org/1999/xlink" viewBox="0 0 195.81 645.84"><defs><style>.cls-1{isolation:isolate;}.cls-2{fill:#ff8650;}.cls-3{fill:#ffc867;}.cls-4{fill:#ffa358;}.cls-5{fill:#ff6b4d;}.cls-6{fill:#ff644d;}.cls-7{fill:#fe6e30;}.cls-8{fill:#ff7534;}.cls-9{fill:#b74a69;}.cls-10{fill:#fffffa;}.cls-11{mix-blend-mode:overlay;opacity:0.4;fill:url(#radial-gradient);}</style><radialGradient id="radial-gradient" cx="459.92" cy="501.88" r="682.23" gradientTransform="translate(82.36) scale(0.86 1)" gradientUnits="userSpaceOnUse"><stop offset="0" stop-color="#ecff7d"/><stop offset="0.12" stop-color="#cdd77e"/><stop offset="0.26" stop-color="#aead7e"/><stop offset="0.4" stop-color="#938b7f"/><stop offset="0.54" stop-color="#7f707f"/><stop offset="0.69" stop-color="#715d80"/><stop offset="0.84" stop-color="#685280"/><stop offset="1" stop-color="#654e80"/></radialGradient></defs><g class="cls-1"><g id="Layer_3" data-name="Layer 3"><rect class="cls-2" x="-41.88" y="110.64" width="1071.56" height="505.21"/><polygon class="cls-3" points="-41.88 474.2 -41.88 615.84 1029.68 615.84 1029.68 476.21 -41.88 474.2"/><polygon class="cls-4" points="1029.68 447.94 -41.88 434.48 -41.88 477.2 1029.68 489.21 1029.68 447.94"/><polygon class="cls-3" points="-41.88 466.1 1029.63 466.1 1029.63 472.1 -41.88 473.71 -41.88 466.1"/><polygon class="cls-5" points="-41.88 257.97 1028.94 272.94 1029.68 0 -41.88 0 -41.88 257.97"/><polygon class="cls-4" points="-41.88 426.46 1028.94 419.02 1028.94 399.74 -41.88 358.38 -41.88 426.46"/><path class="cls-6" d="M23.36,485.94c-.52.16-1,.38-1.53.56a8.55,8.55,0,0,0-1.61.58c-.44.3-1.06.21-1.48.33a.85.85,0,0,1-.25,0s0-.06-.12-.13a2.15,2.15,0,0,1-.52-.14c-.14-.08-.52-.39-.79-.54s-.54-.21-.75-.33-.41-.29-.62-.44a6.19,6.19,0,0,1-.57-.3c-.21-.13-.39-.32-.62-.45-.41-.23-.82-.44-1.36-.69a5.64,5.64,0,0,0,.68,1.16c.22.33.51.62.75.94s.45.55.69.81a5.57,5.57,0,0,0,.85.67c.25.17.58.47.81.63a5.2,5.2,0,0,0,1,.49,4.3,4.3,0,0,0,.5.15,4,4,0,0,0,1-.07,4.82,4.82,0,0,0,2.06-1,4.19,4.19,0,0,1,1-.53,3.67,3.67,0,0,0,.88-.7c.39-.46.89-.79,1.23-1.22A9.1,9.1,0,0,0,23.36,485.94Z"/><path class="cls-6" d="M161.78,386.12c-.52.16-1,.38-1.53.56a8.9,8.9,0,0,0-1.6.57c-.45.31-1.07.21-1.49.33h-.25s0-.06-.12-.13a2.27,2.27,0,0,1-.52-.15c-.14-.07-.52-.38-.79-.53s-.54-.21-.75-.34-.41-.29-.62-.43-.38-.18-.56-.3-.39-.32-.63-.45c-.41-.23-.82-.44-1.36-.7a5.7,5.7,0,0,0,.68,1.17c.22.33.51.61.75.94s.45.54.69.8a5.07,5.07,0,0,0,.85.68c.25.16.58.46.81.62a4.22,4.22,0,0,0,1,.49,1.6,1.6,0,0,0,.78.15,3.08,3.08,0,0,0,.71-.06,5,5,0,0,0,2.07-1,3.8,3.8,0,0,1,1-.53,3.93,3.93,0,0,0,.88-.7c.39-.46.89-.79,1.23-1.23A11.06,11.06,0,0,0,161.78,386.12Z"/><path class="cls-6" d="M84.45,497.4c-.52.15-1,.38-1.53.56a8.9,8.9,0,0,0-1.6.57c-.44.31-1.06.21-1.49.33h-.25s0-.06-.12-.13a2.93,2.93,0,0,1-.52-.15c-.13-.07-.51-.38-.78-.54a7,7,0,0,1-.76-.33,7.5,7.5,0,0,0-.62-.43c-.19-.11-.38-.19-.56-.3s-.39-.32-.63-.45c-.4-.23-.82-.44-1.36-.7a7.18,7.18,0,0,0,.68,1.17c.23.33.52.61.75.94s.46.54.69.8a5.51,5.51,0,0,0,.85.68c.26.16.58.46.82.62a3.85,3.85,0,0,0,1,.49,4.22,4.22,0,0,0,.5.16,5.14,5.14,0,0,0,1-.07,5,5,0,0,0,2.07-1,4.17,4.17,0,0,1,1-.54,3.87,3.87,0,0,0,.89-.69c.39-.46.88-.79,1.22-1.23A9.11,9.11,0,0,0,84.45,497.4Z"/><polygon class="cls-7" points="-41.86 518.32 1028.94 520.19 1028.94 615.84 -41.88 615.84 -41.86 518.32"/><polygon class="cls-8" points="176.19 518.7 95.18 518.56 94.43 615.84 189.21 615.84 176.19 518.7"/><polygon class="cls-7" points="317.63 518.95 176.19 518.7 189.21 615.84 312.03 615.84 317.63 518.95"/><polygon class="cls-7" points="1029.68 533.04 -41.81 523.01 -41.81 531.01 1029.68 535.97 1029.68 533.04"/><polygon class="cls-9" points="-41.88 535.28 1029.68 598.36 1029.68 645.84 -41.88 645.84 -41.88 535.28"/><path class="cls-9" d="M48.77,361.14s-8.45-15.5-27.33-12.34-10.35,27.9-10.35,27.9S12.48,365.43,23.45,362,48.77,361.14,48.77,361.14Z"/><path class="cls-9" d="M47.87,361.88S54.39,346.59,71.51,347s14.66,22.64,14.66,22.64-4.59-9.32-15-11.78S47.87,361.88,47.87,361.88Z"/><path class="cls-9" d="M48.45,362s-2-17,9.18-22.65S76.94,344,76.94,344s-7.43-1-13.06,1.4C54.1,349.58,48.45,362,48.45,362Z"/><path class="cls-9" d="M48.45,362c-.8-10.25-8.76-22.57-11.57-24.34s-12.12-4.78-22.4,8.32c0,0,10-3.63,19,1.05S48.45,362,48.45,362Z"/><path class="cls-9" d="M47.46,351.12c0,.11-2.6-10.13-.74-14.7s9.86-7.61,9.86-7.61S49.29,341.61,47.46,351.12Z"/><path class="cls-9" d="M49.13,361.07s12,1.63,15,4.65,5.43,13.85,5.43,13.85a25,25,0,0,0,2.18-15.69C69.9,355.54,53.65,359,53.65,359Z"/><path class="cls-9" d="M47.63,361A14,14,0,0,0,36.9,366.2c-4.45,5.5-4.26,14.92-4.26,14.92s-6.31-8.28-3.23-15.31S47.63,361,47.63,361Z"/><path class="cls-9" d="M61,376.27S65.14,366,50.84,363C50.84,363,53.87,373.77,61,376.27Z"/><path class="cls-9" d="M38.62,376.34A25,25,0,0,0,46,361.62S35,367.55,38.62,376.34Z"/><path class="cls-9" d="M31.84,583.63a19.28,19.28,0,0,1,.41-2.57c.31-1.6.76-3.93,1.34-6.88s1.35-6.48,2.09-10.6,1.47-8.82,2.32-13.92c.21-1.27.43-2.57.65-3.89s.37-2.7.56-4.09q.57-4.17,1.17-8.6c.2-1.48.4-3,.61-4.49s.42-3,.57-4.61c.34-3.12.68-6.32,1-9.56s.77-6.53,1-9.9.56-6.77.85-10.2c.65-6.84,1-13.86,1.45-20.86,1.69-28,1.86-56.24,1.53-77.38-.05-5.29-.23-10.14-.31-14.44s-.26-8-.4-11.13-.24-5.51-.31-7.17c0-.83-.06-1.47-.08-1.9a5.05,5.05,0,0,1,0-.68c.34-.46,2.51-1.13,2.88-.53,0,0,0,.26.08.71s.09,1.1.16,1.94c.14,1.7.3,4.16.49,7.28.37,6.25.82,15.14,1.12,25.82.63,21.34.77,49.84-.67,78.25-.39,7.09-.69,14.2-1.28,21.16-.27,3.48-.53,6.94-.78,10.35s-.65,6.76-1,10.07-.66,6.56-1,9.73-.78,6.26-1.14,9.27-.77,5.94-1.14,8.77c-.19,1.42-.35,2.81-.55,4.17s-.44,2.68-.65,4c-.85,5.2-1.62,10-2.31,14.2s-1.56,7.82-2.15,10.82l-1.42,7-.39,1.85c-.09.42-.14.64-.15.65C36.24,586.5,32.29,584.58,31.84,583.63Z"/><polygon class="cls-2" points="-41.81 250.89 1028.94 258.49 1028.94 227.49 -41.81 243.81 -41.81 250.89"/><polygon class="cls-9" points="158.54 518.57 162.1 516.59 165.76 519.14 166.65 555.17 158.62 555 158.54 518.57"/><rect class="cls-9" x="160.78" y="450.98" width="2" height="30.87" transform="translate(-307.62 619.34) rotate(-88.91)"/><polygon class="cls-9" points="161.1 523.94 160.09 479.04 138.85 462.05 138.01 438.65 141 438.54 141.79 460.57 163.05 477.57 164.09 523.88 161.1 523.94"/><polygon class="cls-9" points="162.46 479.51 160.68 477.1 181.7 461.53 182.67 437.21 185.67 437.34 184.63 463.09 162.46 479.51"/><path class="cls-10" d="M192.84,437.4a8.9,8.9,0,0,1-8.3,9.22,8.49,8.49,0,0,1-9-8.14,8.91,8.91,0,0,1,8.31-9.22A8.48,8.48,0,0,1,192.84,437.4Z"/><path class="cls-10" d="M148.17,438.06a8.9,8.9,0,0,1-8.3,9.22,8.48,8.48,0,0,1-9-8.14,8.89,8.89,0,0,1,8.3-9.22A8.47,8.47,0,0,1,148.17,438.06Z"/><polygon class="cls-9" points="902.8 598.73 880.31 572.59 -42.01 525.83 -41.75 520.83 882.71 567.7 906.59 595.47 902.8 598.73"/><rect class="cls-9" x="15.45" y="526.47" width="5" height="12.52"/><rect class="cls-9" x="190.81" y="535.68" width="5" height="13.45"/><rect class="cls-9" x="106.64" y="530.77" width="5" height="16.45"/><rect class="cls-9" x="76.63" y="534.21" width="19.33" height="14.72"/><polygon class="cls-9" points="890.38 590.87 880.56 579.85 -41.86 530.8 -41.75 528.8 881.5 577.89 891.87 589.53 890.38 590.87"/><rect class="cls-11" x="-41.81" width="1071.48" height="645.84"/></g></g></svg>