<svg xmlns="http://www.w3.org/2000/svg" viewBox="0 0 625.47 784.46"><defs><style>.cls-1{fill:#00a79d;}.cls-2{fill:#e7efc1;}.cls-3{fill:#391a32;}.cls-4{fill:#ad5257;}</style></defs><g id="Layer_1" data-name="Layer 1"><rect class="cls-1" x="-96.99" width="1579.42" height="608.77"/><path class="cls-2" d="M1482.43,476.14h-.19c-8.11.18-14.8,4.53-17,10.41a17.43,17.43,0,0,0-5.24-.85c-7.63-.08-13.87,4.62-13.93,10.48a8.74,8.74,0,0,0,1.65,5.14,4.61,4.61,0,0,0-3.16,4c0,1.9,1.44,3.54,3.56,4.28a14.64,14.64,0,0,0-.82,4.66,15,15,0,0,0,2.06,7.68,33.39,33.39,0,0,0-5.84,3.95c-4.51-5.73-12.86-9.63-22.46-9.73a33.79,33.79,0,0,0-12,2c-2-4-6.95-6.83-12.8-6.89a15.4,15.4,0,0,0-11.26,4.3,16,16,0,0,0-10-3.43,16.49,16.49,0,0,0-8.63,2.22c-2.79-8.41-13-14.71-25.25-14.84-11.16-.12-20.74,4.93-24.6,12.14a11.06,11.06,0,0,0-1.75-.15c-3.71,0-6.93,1.62-8.41,4.05a5.73,5.73,0,0,0-.84-.06c-3.33,0-6,2-6.07,4.57a3.73,3.73,0,0,0,.66,2.14,6.82,6.82,0,0,0-3.92,5.54c-1.34-2.61-4.63-4.48-8.49-4.52h-.12c-.64-3.55-4.58-6.32-9.38-6.37a11.85,11.85,0,0,0-4.41.8,4,4,0,0,0-.49,0c-1.43-2.46-4.61-4.19-8.32-4.23a12.69,12.69,0,0,0-1.76.12c-3.71-7.29-13.17-12.54-24.33-12.65a34.75,34.75,0,0,0-7.8.8,18,18,0,0,0-8.33-2.06,18.67,18.67,0,0,0-4.55.5,20.52,20.52,0,0,0,2.52-9.52c.15-14.29-15.12-26-34.09-26.24-14.24-.15-26.52,6.24-31.83,15.47a11.56,11.56,0,0,0-5.52-1.42,11.74,11.74,0,0,0-5.22,1.13,21.11,21.11,0,0,0-14-4.68c-7.06.16-13,3.49-15.93,8.23-2.79-4.8-8.7-8.25-15.76-8.56a21,21,0,0,0-14.15,4.39,11.9,11.9,0,0,0-10.74.06c-5.12-9.34-17.26-16-31.49-16.14-19-.2-34.48,11.23-34.63,25.53a20.22,20.22,0,0,0,2.32,9.56,19.66,19.66,0,0,0-4.54-.59,18.15,18.15,0,0,0-8.38,1.89,35,35,0,0,0-7.78-1c-11.15-.12-20.73,4.93-24.59,12.14a12.51,12.51,0,0,0-1.75-.15c-3.72,0-6.93,1.63-8.41,4.05-.16,0-.33,0-.49,0a11.73,11.73,0,0,0-4.39-.89c-4.8-.05-8.8,2.63-9.52,6.17h-.11c-3.87,0-7.19,1.76-8.58,4.34a6.81,6.81,0,0,0-3.81-5.62,3.83,3.83,0,0,0,.71-2.13c0-2.56-2.65-4.66-6-4.7-.28,0-.56,0-.84,0-1.43-2.45-4.61-4.18-8.33-4.22a11.19,11.19,0,0,0-1.75.11c-3.71-7.29-13.18-12.53-24.33-12.65-12.25-.13-22.6,6-25.56,14.31a16.52,16.52,0,0,0-8.58-2.4,15.91,15.91,0,0,0-10.07,3.23,15.36,15.36,0,0,0-11.17-4.54c-5.85-.07-10.88,2.68-12.94,6.62a33.7,33.7,0,0,0-11.91-2.25c-9.6-.1-18,3.62-22.66,9.26a32.4,32.4,0,0,0-5.75-4.07,15.11,15.11,0,0,0,2.22-7.64,14.62,14.62,0,0,0-.72-4.67c2.13-.7,3.63-2.31,3.65-4.21a4.62,4.62,0,0,0-3.08-4.09,8.74,8.74,0,0,0,1.76-5.1c.06-5.86-6.08-10.69-13.71-10.77a17.54,17.54,0,0,0-5.25.74c-2.1-5.92-8.69-10.41-16.79-10.77a21.1,21.1,0,0,0-14.15,4.39,11.72,11.72,0,0,0-5.19-1.24,11.58,11.58,0,0,0-5.55,1.31c-5.12-9.35-17.26-16-31.49-16.14-19-.2-34.48,11.23-34.63,25.53a20.35,20.35,0,0,0,2.31,9.56,18.55,18.55,0,0,0-4.53-.59c-8.22-.09-14.94,5-15,11.28a8.83,8.83,0,0,0,.62,3.39c-3.41.49-6,2.78-6,5.55a4.6,4.6,0,0,0,.72,2.49l-.75,0c-4.9,0-8.93,2.86-9.25,6.58a32.92,32.92,0,0,0-7.63-1.89c-.81-3.25-4.51-5.73-9-5.77a1.82,1.82,0,0,0-.33,0c-1.06-3.16-4.75-5.52-9.18-5.56-4.8-.05-8.79,2.63-9.51,6.17h-.12c-5.08-.05-9.24,3.08-9.28,7a5.73,5.73,0,0,0,.43,2.21,29.72,29.72,0,0,0-8,3.26,10.3,10.3,0,0,0-7.32-2.9,11.68,11.68,0,0,0-4,.66c-1.65-5.42-8-9.51-15.75-9.59-5.48-.05-10.32,1.94-13.31,5-4.75-4-11.67-6.53-19.4-6.61-12.24-.12-22.59,6-25.56,14.31a16.46,16.46,0,0,0-8.57-2.4,15.94,15.94,0,0,0-10.08,3.23,15.38,15.38,0,0,0-11.17-4.54c-5.85-.06-10.88,2.69-12.93,6.62a34,34,0,0,0-11.91-2.25c-9.6-.1-18,3.62-22.66,9.26a33.14,33.14,0,0,0-5.75-4.07,15.1,15.1,0,0,0,2.21-7.64,14.39,14.39,0,0,0-.72-4.67c2.13-.7,3.63-2.31,3.65-4.21a4.61,4.61,0,0,0-3.08-4.09,8.66,8.66,0,0,0,1.76-5.09c.06-5.87-6.07-10.7-13.7-10.78a17.6,17.6,0,0,0-5.26.74c-2.09-5.92-8.69-10.41-16.79-10.76a21,21,0,0,0-14.14,4.38,11.72,11.72,0,0,0-5.19-1.24,11.55,11.55,0,0,0-5.55,1.31c-5.12-9.35-17.27-16-31.5-16.14-19-.2-34.48,11.23-34.63,25.53a20.22,20.22,0,0,0,2.32,9.56,18.57,18.57,0,0,0-4.54-.59c-8.22-.09-14.93,5-15,11.29a9.11,9.11,0,0,0,.63,3.39c-3.42.48-6,2.77-6,5.54a4.75,4.75,0,0,0,.72,2.49c-.24,0-.49,0-.74,0-4.91-.06-8.94,2.86-9.26,6.57a32.79,32.79,0,0,0-7.63-1.89c-.81-3.25-4.5-5.73-9-5.77h-.34c-1-3.16-4.74-5.52-9.17-5.56-4.8,0-8.8,2.63-9.52,6.17h-.11c-3.87,0-7.19,1.76-8.58,4.34a6.84,6.84,0,0,0-3.81-5.62,3.78,3.78,0,0,0,.71-2.13c0-2.55-2.65-4.66-6-4.69a7.87,7.87,0,0,0-.84,0c-1.43-2.45-4.61-4.19-8.32-4.22a11.32,11.32,0,0,0-1.76.11c-3.71-7.29-13.17-12.53-24.33-12.65-12.25-.13-22.59,6-25.56,14.31a16.49,16.49,0,0,0-8.58-2.4,15.93,15.93,0,0,0-10.07,3.22,15.42,15.42,0,0,0-11.17-4.54c-5.85-.06-10.88,2.69-12.94,6.62a33.68,33.68,0,0,0-11.9-2.24c-9.61-.11-18,3.62-22.66,9.25a33.38,33.38,0,0,0-5.76-4.07,15.08,15.08,0,0,0,2.22-7.64,14.39,14.39,0,0,0-.72-4.67c2.13-.69,3.63-2.3,3.65-4.2a4.62,4.62,0,0,0-3.08-4.09,8.78,8.78,0,0,0,1.76-5.1c.06-5.87-6.08-10.69-13.71-10.77a17.22,17.22,0,0,0-5.25.74C33,484.83,26.37,480.34,18.27,480a21.1,21.1,0,0,0-14.15,4.39,11.59,11.59,0,0,0-5.19-1.24,11.49,11.49,0,0,0-5.55,1.3c-5.12-9.34-17.26-16-31.49-16.14-19-.19-34.48,11.23-34.63,25.53a20.36,20.36,0,0,0,2.31,9.57,19,19,0,0,0-4.53-.6c-8.22-.08-14.93,5-15,11.29a9.22,9.22,0,0,0,.62,3.39c-3.41.49-6,2.77-6,5.55a4.68,4.68,0,0,0,.72,2.49c-.25,0-.49,0-.74,0a12,12,0,0,0-1.6.09V741.78l1579.42-24.31Z"/></g><g id="Layer_2" data-name="Layer 2"><rect class="cls-3" x="-96.99" y="689.6" width="1579.42" height="31.6"/><rect class="cls-4" x="-96.99" y="717.4" width="1579.42" height="67.06"/></g><g id="Layer_3" data-name="Layer 3"><path class="cls-3" d="M249.71,236.37c-6.58-3.31-14.21-6.78-21-7.59,5.73,3.25,11.29,8.1,14.06,14.08-5.4-3.25-10.45-7.85-16.82-8.73,3.53,2.33,6.58,5.25,7.18,8.43-6.24-3-12.86-6.64-19.35-7.82,3.95,2.8,8.08,6.69,9.61,10.54-11.33-7.14-27.68-14.89-39.95-14.89A30.64,30.64,0,0,1,198,242a64.54,64.54,0,0,0-18-5.61,21.12,21.12,0,0,1,7.57,8,97.06,97.06,0,0,0-11-3.88c.58.9,1.4,1.33,2,2.22-8.92.11-19.83-5.49-29.61-5.2-8.16.23-16,3.2-22.49,6.43,34.2,4.51,97.78,25.43,111.36,65.2-8.21-6.44-15.69-13-24.42-18.61,3.48,2.7,6.05,5.95,6.87,9.83a43.44,43.44,0,0,0-10.2-6.2c-.41.79-.44,1.57-.9,2.39-3.13-1.9-6.49-3.83-9.38-5.39,9.17,10.9,23.75,27.34,17.4,41-2.45-6-7.25-11.67-11.87-16.54.11,4.27-.22,8.63-1.9,12-.83-3.86-1.95-8.24-4.43-11.65,0,2.85-1.32,5.26-1.59,8a53.82,53.82,0,0,0-11.88-17.61c-.26,2.21-1.55,4.66-1.67,6.72-.13-5.63-2.66-13-8.16-16.3-1.77,3.43-3.06,7.29-5.84,10.23,1.53-13.8-9-23.19-11.86-36,1.1,11,5,20.43,3.26,31.58-4.68-10.45-8.68-22.69-12.67-33.59.35,8,.52,17.83-2.76,24.58-.25-8.45-5.38-16.43-10.83-23.63.35,3.82.19,7.64-1.53,10.5-5.3-5.12-8.68-12.21-15-16.48.61,5.66-4.08,6.65-9,5.38,9.66,15.9,14.27,37.3.52,49.12.22-2.12-.26-4.57,0-6.67A47.92,47.92,0,0,1,99.31,328c-2,12.91-3.87,25.8-5.51,38.67-3.74,38.75-5.55,75-5.85,81.53,0,13.54.46,27,1.76,40.44,1.64,17.09,2.33,34.35,2.4,51.73,0,.2,0,.35,0,.35l0-.28q.06,18.1-.75,36.37l.06-.52-.09,1.5q-.77,17.48-2.1,35.07c-1.43,23.86-3.42,57.27-5.59,93.64H62.15q2.6-20.16,5.89-40.46c6.66-68,4.72-152.14,3.65-183.64-.26-4.16-.4-8.31-.47-12.45,0-.14,0-.3,0-.3v0c-.55-32.66,4.57-64.9,11.26-97.06,1.67-10.87,3.54-23.27,5.41-36.13-7.31,4.28-15.6,7.73-24.45,12.67,1.95-3.26,7.26-6.35,8.22-11.08-4.21,4.6-10.6,1.2-16.68-.46,3-1,4.81-2.75,7.16-4.19-2.7.79-3.21,0-5.24-.13,1.85-1,2.63-2.3,4.08-3.61-.92-.2-2.85-1.16-4.13-1.4,2.8-4,4.81-8.64,8.51-12-1.55,1.45-3.48,2.44-5.08,4.17,1.27-5,8.12-13.89,13.39-17.87-4.54.53-7.89,4.32-11,6.8,5.65-7.89,10.71-16.91,18.91-22.66-1.29.37-2.77.52-4.11.88-.71-7.7,5.15-15.41,6.32-23-16.61.07-18.93,28.55-28.28,37.28,2.43-4.21,4-10.22,3-15.44-4.38,6.72-9.55,15.42-16.83,19.59a29.14,29.14,0,0,0,3.44-8.82c-4.2,6.41-13,8.15-20,11.07a24.52,24.52,0,0,0,5.13-8.11c-12,.64-22.58,4.63-32.93,9.44,3.2-8.27,11.46-12.1,17.94-17.29-10.63,6-23,8.92-30.9,18.78C-12,299.58.43,289.49,11.79,284.4c-8.46.55-21.36,4-25.33,8.94,7.59-8.84,13.7-12.53,24.87-16.15C7.44,276.66,3.18,277-.06,276c2-3.68,6.5-5.38,9.94-7-4.77-1.87-9.8-2.41-13,.33,11-13.3,24-9.1,39.08-14.31a26.63,26.63,0,0,0-13.32-.64c2.44-3.32,5.27-6.57,8-9.71-6.2.77-10.59,5.68-16,8.31.05-1.41,2.12-6.54,4.31-8.81a21.13,21.13,0,0,0-12,4c1-1,1.73-2.39,2.67-3.37-9.17-5.68-22.66,5.26-28,10.92,2-5.36,6.4-10.13,7.46-15.3-6.36.47-10.76,3.68-13.74,8.85,1-5.32,5.18-10.28,4.62-15.47A53.28,53.28,0,0,0-38.46,241c.28-9.66,9.13-14.81,16.33-18.76-10.46,4.24-23.1,6.26-32.22,12.32,6.08-9.31,15.11-12.31,24.06-18.23-12.72,2.13-23.7,5.66-35.92,9.16,20.41-18.79,40.58-19,69.4-12.64,12.52,2.76,25.23,5.29,37.62,9.39,8.62,2.86,18.88,8.64,27.11,9.71a20.66,20.66,0,0,0,.71-6.68c-1.42.55-4.69.25-6.5,1.17a17.43,17.43,0,0,1,3-9.06A12.32,12.32,0,0,0,56.77,222c.49-1.48.71-4.87,2-6.83-2.54,1.44-5.32,2.48-7.43,4.55-4.09-5.87-1.85-14.37,2.64-18.4-4.08,2.3-6.59,6.34-9.89,9.58-2.61-5.73,1.09-9.76,3.2-14.26-3.85,2.5-6.44,6.63-9.75,9.83-.14-5.49,2.57-11.52,5.07-16.35-5.15,1.47-9.41,5.42-12.3,9.81.83-6.5,1.55-13.6,6.07-18.05a16.49,16.49,0,0,0-7.94,4.15,46.49,46.49,0,0,1,2.22-9.13,13.15,13.15,0,0,0-10.08,3.16c2.1-1.61,3.5-4.3,5.14-6.3-7.52-1.64-15.39,3.61-20.84,7.58C8.63,172,16.8,171.45,23.59,166,12,163.28,3.42,167.72-6.06,171.74c4.82-6.9,12.21-8.7,19.31-12.61-5.76-.23-12.1.49-18,.91a55.35,55.35,0,0,1,12.27-4.76A83.86,83.86,0,0,0-33.45,159c4.45-6,17.83-8.06,25.69-8.24-8.51-4-22.66-1.67-31.21-.34C-34.84,144.71-25.2,143-17.9,142c-11.3-1.29-24.28-2.88-34.95-1.26,4.15-6.31,15-3.7,21.84-5.43-8.31-1.9-17.26-3.73-25.84-5.61,18.49-6.61,37.66-3.08,57.6,5.78a32,32,0,0,0-10.91-7.15c10.91-2.49,34.17,18.29,44.22,25,17.6,11.85,27.43,27.25,40.3,42.7,11.77-18.17-28.62-53-43-61.44,12.22,1,19.41,13.42,30.47,19.12-.2-1.21.11-3.5-.13-4.69,1.37,2.59,4.06,4.76,5.48,6.95,3.35-8.05-9.35-22.82-12-29.11,4.32,3.15,7.73,7.34,11.31,10.93,3.58-12.53-5.36-33-11.57-46.17C71.65,96.5,81.61,122,87.5,136.22c3.12,7.55,4.25,15.05,6.47,22.6,2.1,7.15,1.88,15.88,4.67,22.33,9-8.69-2.55-30.57-6.27-42,3.88,2.1,7.34,5.56,10.86,8.69-2.89-6-4.74-13.22-6.06-19.46,2.21,2.07,5.12,3.24,7.1,6.44,1.92-11.25-3.39-22.3-9-33.82,3.5,3.62,6.28,8.42,9.83,11.94,3.23-5.33,1.16-15.2,1.81-22.06,12.45,14.69,11.82,32.24,18.32,48.54a20.64,20.64,0,0,0,4.55-8.66c.06.87.18,1.77.29,2.86.84,0,1.33-.6,2.22-.61-.31,12-6.38,21.88-10.85,31.91-4.67,10.45-5,23-8,33.88,13.64-17.82,27.44-35.76,40.8-53.61a24.2,24.2,0,0,0-3,10.2c4.58-4.59,8.07-11.64,14.55-13.78a17.81,17.81,0,0,0-5.06,9.89c4-3.91,9.32-7.92,15.7-6.73-17.57,13.2-39.25,30.65-47,52.54,13.23-14.66,29.2-25.26,47.55-33.77,15-7,29.9-16.93,46.57-19.11-6.43,5.82-17.42,10.77-25.46,14.68a32.17,32.17,0,0,1,10,1.59,14.29,14.29,0,0,0-8.29,3.74c3.11.34,4.12,1.7,6.35,2.44-4.24.9-8.63,2.44-11.77,5.31,4.06-1,8.42.12,12.44,2.65-4.2.52-9.18.83-11.92,4.06a13.77,13.77,0,0,1,10.26,4.3c-9.17-2.08-14.66-.49-21.27,3.43a24.82,24.82,0,0,1,12,9.42c-6.8-3.38-18.36-6.38-24.56-4.1,4.08.85,5.32,2.33,8.51,4.39a32.59,32.59,0,0,0-14.14-.33c1.54.85,3.63,2.79,5.11,3.61-19.33-.3-33.69,9.31-44.95,22.56,15.43-11.74,48.71-14.36,69.75-13.57,20.4.77,62.13,9.58,74.59,30-8.5-4.5-20.22-10.49-28.93-10.19A15.69,15.69,0,0,1,249.71,236.37Z"/><path class="cls-3" d="M526.91,529.22h8.42v-9.63H424.59V414.13h15v-11h-8.93v-11H252.2v11h-8.93v11h15V519.59H234.2v9.63h8.22v36.56H230.08V582h4.12V590h9.33V697h34.1v-4.23L385,650.54l106.72,42V697h28.24v-.22h5.86V635.85l.26,0V590h9.27V582h4.12V565.78H526.91Zm-264.2-115h13l-7,11.19Zm58.08,11.19-6-11.19-7,11.19-5.95-11.19-7,11.19L289,414.29l-7,11.12-5.95-11.19h64.71l-7,11.19-5.95-11.19Zm5.88,21.28v6h0v13.93H277.92v-19.9Zm71.25-21.28L392.4,415l-6.51,10.4-5.95-11.19-7,11.19L367,414.22l-7,11.19-5.91-11.12-7,11.12-5.95-11.19h76.75l-7,11.19-5.95-11.19Zm7,21.28v6h0v13.93H356.18v-19.9ZM280.05,590H490.17L385,631.41l-37.8-14.87.21,0Zm-2.42,83.61V634.23l.26-.05V608.42L360.66,641ZM409.3,641l62.35-24.53.21,0,19.84-7.8v64.72Zm47.88-75.2v-.36l.16.22,32.2-16.52,31.81,16.32v.34ZM248,532.8l10.28,5.28v17.66L248,561ZM521.35,561l-27.5-14.11,27.5-14.11ZM489.54,544.7l-30.18-15.48h60.37Zm-32.36-12.18,28.06,14.39-28.06,14.4Zm-5.56,28.64-27-13.86v-.77l27-13.87Zm-27-9.45,27,13.87v.2h-27Zm25.13-22.49-25.13,12.89V529.22Zm-191.46,4.44-8.66-4.44h8.66ZM248,565.44l10.28-5.28v5.62H248Z"/><path class="cls-3" d="M616.14,641.05c-4.58-37.24-21.16-84.85-44.45-116.44V411.17h0V382.69h0V370.11h0V344.43h0V329.88h-4.76v12.05c-6.72-3-19.66-6.74-33.12.09-12.11,6.14-18.36,3.57-24.63,4.11,2.61,6,2.41,13.3.55,19.66-.11.37-.23.74-.35,1.11l-.18.54c-.13.37-.27.74-.41,1.11-.06.16-.12.33-.19.49q-.23.57-.48,1.11c-.06.15-.12.29-.19.43-.23.5-.47,1-.72,1.46v.07a140.53,140.53,0,0,0,14.22-.19c2.16-.14,4.32-.36,6.42-.66a45.72,45.72,0,0,0,11.5-2.95,23.29,23.29,0,0,1,3.71-1.2c.86-.2,1.74-.36,2.62-.48s1.78-.21,2.69-.26,1.81-.08,2.71-.07l1.36,0a68.33,68.33,0,0,1,14.49,2.33v15.18a62.55,62.55,0,0,1-10.64.93,89.36,89.36,0,0,1-19-2.08,69.26,69.26,0,0,0-13.87-1.64h-2l-.47,0a35.42,35.42,0,0,0-8.72,1.36h.1a18.07,18.07,0,0,0-4.63,2c2.08,3.64,1.58,8.92,1.4,12.79-.25,5.13-1.15,10.14-1.57,15.22.79-.68,3.48-2.49,9.95-2.73h1.78a64.29,64.29,0,0,1,12.21,1.45c11.08,2.25,20,3.73,27,3.6a29.28,29.28,0,0,0,8.49-1.23v105c-2.17-2.63-4.39-5.14-6.66-7.46-16,48.22-9.83,100.1,3.26,141.47,1.15,3.62,2.28,7,3.4,10.21v34.06h4.76V675.49a204.78,204.78,0,0,0,9.79,21.29h15.83c-18.64-65.29-24.06-104.51-25.62-122.87V562.7c3.31,7.52,18.71,45.76,32,134.08h13.83C618.63,688.84,619.85,671.15,616.14,641.05Z"/></g></svg>